<mxfile host="app.diagrams.net" modified="2023-08-04T03:16:19.042Z" agent="Mozilla/5.0 (Windows NT 10.0; Win64; x64) AppleWebKit/537.36 (KHTML, like Gecko) Chrome/115.0.0.0 Safari/537.36" version="21.6.6" etag="lF0AoDtHUJ9FZ5phLE1C" type="github">
  <diagram name="第 1 页" id="pDlGfpnhKRPvL7X-leVJ">
    <mxGraphModel>
      <root>
        <mxCell id="0" />
        <mxCell id="1" parent="0" />
      </root>
    </mxGraphModel>
  </diagram>
</mxfile>
